<?xml version="1.0" ?><svg viewBox="0 0 32 32" xmlns="http://www.w3.org/2000/svg"><defs><style>.cls-1{fill:#04009a;}.cls-2{fill:#77acf1;}</style></defs><g data-name="23. Warehouse" id="_23._Warehouse"><path class="cls-1" d="M31,30V15A15,15,0,0,0,1,15V30a1,1,0,0,0,0,2H31a1,1,0,0,0,0-2ZM18,24H14V20h4Zm-5,2h2v4H11V26Zm4,4V26h4v4Zm6,0V25a1,1,0,0,0-1-1H20V19a1,1,0,0,0-1-1H13a1,1,0,0,0-1,1v5H10a1,1,0,0,0-1,1v5H7V16H25V30Zm4,0V15a1,1,0,0,0-1-1H6a1,1,0,0,0-1,1V30H3V15a13,13,0,0,1,26,0V30Z"/><path class="cls-2" d="M20,5a1,1,0,0,0-1-1H13a1,1,0,0,0-.38.08,1,1,0,0,0-.54.54A1,1,0,0,0,12,5v6a1,1,0,0,0,1,1h6a1,1,0,0,0,.38-.08,1,1,0,0,0,.54-.54A1,1,0,0,0,20,11ZM18,8.59,15.41,6H18ZM14,7.41,16.59,10H14Z"/></g></svg>