<?xml version="1.0" standalone="no"?>
<!DOCTYPE svg PUBLIC "-//W3C//DTD SVG 20010904//EN"
 "http://www.w3.org/TR/2001/REC-SVG-20010904/DTD/svg10.dtd">
<svg version="1.0" xmlns="http://www.w3.org/2000/svg"
 width="2048.000000pt" height="2048.000000pt" viewBox="0 0 2048.000000 2048.000000"
 preserveAspectRatio="xMidYMid meet">

<g transform="translate(0.000000,2048.000000) scale(0.100000,-0.100000)"
fill="#000000" stroke="none">
<path d="M14910 17271 c-214 -46 -363 -148 -442 -304 -37 -75 -73 -216 -82
-325 -8 -93 3 -125 51 -143 40 -15 365 -30 407 -18 45 12 53 28 64 121 5 41
17 88 26 106 50 97 221 132 322 66 37 -25 64 -85 64 -145 0 -108 -72 -185
-259 -279 -148 -74 -216 -162 -240 -310 -6 -36 -11 -136 -11 -223 0 -154 1
-158 25 -182 24 -25 26 -25 204 -25 175 0 181 1 208 24 26 23 27 28 33 144 7
137 16 157 85 200 25 15 93 56 151 92 261 159 368 325 368 570 1 335 -205 575
-544 636 -109 19 -326 17 -430 -5z m440 -121 c30 -7 91 -29 135 -50 186 -89
284 -263 272 -485 -6 -112 -31 -181 -95 -260 -57 -71 -107 -110 -270 -211
-209 -129 -223 -147 -231 -304 l-6 -105 -104 -3 c-57 -1 -108 1 -112 5 -5 5
-5 82 0 173 11 234 18 246 219 354 122 65 193 117 227 166 81 118 84 259 7
380 -21 33 -46 55 -93 80 -62 34 -67 35 -174 35 -94 0 -117 -3 -160 -23 -100
-46 -162 -133 -180 -252 l-7 -45 -121 3 c-67 2 -128 5 -134 7 -17 6 -16 50 3
142 46 226 204 362 464 402 79 12 285 7 360 -9z"/>
<path d="M5158 16286 c-74 -27 -123 -75 -147 -145 -7 -23 -11 -160 -11 -427
l0 -394 -318 0 c-234 0 -321 -3 -330 -12 -9 -9 -12 -885 -12 -3878 l0 -3867
21 -19 c21 -19 75 -19 2438 -19 l2416 0 0 -546 c0 -600 -2 -579 61 -579 63 0
64 5 65 278 1 136 3 254 4 262 1 8 3 143 4 300 l1 285 443 4 c350 2 445 6 456
16 12 11 14 85 15 417 l1 403 25 33 25 34 5 1093 5 1093 125 -133 c68 -73 126
-138 128 -145 2 -6 -8 -25 -24 -41 -22 -23 -29 -40 -32 -89 -6 -77 1 -87 192
-290 l146 -154 -24 -26 c-36 -38 -46 -64 -46 -115 0 -93 71 -175 211 -242 68
-32 79 -41 73 -58 -3 -11 -8 -45 -11 -76 -4 -46 -1 -64 20 -105 26 -52 89
-116 145 -149 25 -15 30 -23 24 -40 -12 -35 -7 -98 13 -140 24 -51 129 -155
208 -206 99 -64 258 -107 685 -184 l93 -17 57 -75 c31 -41 65 -85 75 -98 17
-23 17 -23 -54 -82 -95 -77 -114 -103 -113 -158 1 -53 -38 2 575 -802 251
-329 487 -640 525 -691 72 -97 95 -112 143 -96 20 7 27 17 29 44 3 33 -20 66
-265 391 -147 195 -294 388 -325 429 -313 408 -530 693 -540 711 -15 24 -41 1
252 231 113 89 288 227 389 307 101 80 218 172 259 205 l76 59 76 -79 c41 -44
145 -155 229 -249 296 -326 437 -481 611 -670 97 -104 270 -296 386 -425 292
-325 306 -340 333 -340 41 0 61 18 61 55 0 37 -18 59 -362 441 l-138 152 -2
846 c-3 781 -4 847 -20 862 -22 22 -74 22 -96 0 -16 -15 -17 -75 -17 -781 0
-421 -2 -764 -6 -762 -8 3 -170 177 -324 347 -77 85 -192 211 -255 280 -63 69
-173 190 -245 269 -71 79 -140 151 -153 162 -36 28 -105 25 -158 -6 l-43 -25
-173 197 c-144 164 -187 221 -252 333 -205 350 -282 432 -611 653 -270 181
-341 208 -425 165 -29 -15 -52 -37 -66 -61 l-21 -37 -164 172 c-91 95 -209
221 -262 279 -53 59 -112 114 -131 123 -45 21 -103 20 -147 -3 l-36 -19 -158
158 -158 158 60 94 c33 51 74 120 91 154 29 58 34 62 104 94 105 47 290 106
410 130 187 39 305 50 536 50 l222 0 0 -122 c0 -254 51 -410 190 -585 100
-126 303 -249 485 -295 75 -19 116 -22 245 -22 133 1 169 5 251 27 168 44 327
135 435 248 166 175 234 356 234 627 l0 132 213 0 c243 0 340 -9 522 -46 509
-102 930 -377 1240 -809 134 -186 265 -489 324 -745 59 -255 70 -633 71 -2332
0 -699 4 -1116 10 -1133 20 -52 103 -51 116 2 11 44 -3 2969 -15 3108 -40 466
-156 817 -379 1151 -306 456 -779 772 -1327 887 -177 37 -288 47 -545 47
l-230 0 0 260 0 260 30 49 c46 74 106 217 134 321 14 51 27 93 28 94 2 1 29 7
61 14 101 20 203 76 285 157 107 108 152 217 152 375 0 127 -37 245 -106 336
l-23 32 25 52 c187 388 239 823 134 1125 -66 189 -209 330 -380 374 l-74 19
-12 44 c-45 176 -200 320 -440 407 -98 36 -271 75 -429 97 -160 22 -576 30
-743 15 -361 -34 -694 -135 -876 -265 -168 -120 -218 -289 -136 -458 l20 -42
-64 -66 c-84 -87 -137 -170 -169 -267 -65 -197 -63 -357 8 -570 38 -113 65
-171 166 -349 l69 -122 3 -328 c3 -235 9 -363 21 -449 55 -396 177 -675 388
-889 l88 -88 0 -73 0 -73 -287 -5 c-241 -3 -307 -8 -403 -26 -142 -27 -313
-72 -403 -105 -37 -15 -69 -26 -71 -26 -2 0 7 35 19 78 74 256 84 613 25 884
-42 194 -144 431 -258 604 -65 98 -199 253 -278 323 l-49 43 -5 1367 -5 1368
-30 49 c-19 30 -49 60 -79 79 l-49 30 -2481 2 c-2052 2 -2487 0 -2518 -11z
m4976 -131 c18 -9 38 -27 45 -41 8 -18 11 -370 11 -1309 0 -707 -3 -1285 -6
-1285 -3 0 -24 13 -47 28 -206 140 -466 239 -729 278 -154 22 -428 15 -583
-16 -692 -138 -1245 -677 -1404 -1370 -49 -216 -54 -521 -11 -735 94 -473 367
-879 779 -1159 408 -278 951 -365 1447 -231 161 44 391 146 511 227 l43 29 0
-1046 0 -1047 -29 -29 -29 -29 -2466 0 -2466 0 -32 29 -33 29 -3 3808 c-2
3455 -1 3810 14 3831 35 55 -113 52 2517 53 2188 0 2442 -1 2471 -15z m2952
-615 c338 -27 614 -104 756 -210 107 -81 157 -162 173 -282 9 -67 23 -78 104
-78 255 0 430 -322 392 -716 -13 -133 -35 -235 -78 -367 -31 -99 -101 -277
-108 -277 -1 0 -22 7 -45 15 -94 33 -230 7 -284 -54 -11 -11 -23 -21 -27 -21
-12 0 -93 157 -132 255 -74 186 -117 408 -117 601 0 156 -21 169 -161 99 -190
-96 -376 -142 -609 -152 -349 -14 -699 76 -970 252 -246 159 -417 405 -380
545 9 35 27 60 76 108 153 147 480 250 909 285 95 8 382 6 501 -3z m-8086
-3688 c0 -2712 2 -3347 13 -3388 18 -68 58 -118 120 -149 l51 -25 2472 0
c1387 0 2475 -4 2478 -9 3 -4 3 -146 -1 -315 l-6 -306 -2829 0 -2828 0 -2
3761 c-2 2068 -1 3763 1 3765 2 2 123 4 268 4 l263 0 0 -3338z m6679 2836 l89
-92 -43 -85 c-83 -166 -130 -340 -160 -591 -9 -74 -18 -139 -19 -145 -9 -30
-129 253 -156 367 -50 208 2 428 135 576 31 34 58 62 61 62 2 0 44 -41 93 -92z
m288 -230 c429 -258 1039 -312 1515 -134 53 20 99 36 102 36 3 0 6 -16 6 -36
0 -62 30 -244 57 -349 37 -144 83 -259 174 -435 78 -153 113 -200 147 -200 31
0 61 30 72 70 12 45 46 76 102 91 207 55 363 -253 251 -493 -54 -116 -152
-201 -274 -239 -33 -10 -80 -19 -104 -19 -46 0 -75 -24 -75 -61 0 -31 -51
-192 -92 -291 -116 -279 -365 -537 -628 -648 -94 -41 -243 -79 -334 -86 -39
-3 -85 -7 -102 -8 -57 -6 -225 13 -301 34 -177 48 -305 123 -433 252 -209 210
-320 475 -372 888 -20 161 -16 830 6 1025 18 156 54 337 87 440 27 80 90 215
101 215 5 0 48 -23 95 -52z m-2627 -758 c394 -49 727 -213 996 -491 171 -177
280 -343 364 -551 124 -310 151 -667 76 -1000 -84 -367 -335 -746 -636 -960
-311 -222 -718 -336 -1092 -307 -235 17 -399 63 -613 169 -391 193 -706 555
-840 963 -62 188 -85 330 -85 517 0 542 261 1047 707 1366 106 77 314 181 442
223 87 29 255 65 341 74 78 8 261 6 340 -3z m4385 -2512 c-54 -261 -287 -492
-560 -557 -150 -35 -347 -31 -482 10 -248 76 -443 276 -498 512 -15 65 -34
527 -21 527 3 0 30 -14 60 -30 218 -123 577 -159 866 -85 226 57 451 188 597
348 l48 53 3 -353 c2 -282 -1 -367 -13 -425z m-3044 -466 l142 -154 -64 -64
c-35 -35 -69 -64 -75 -64 -6 0 -75 65 -153 145 l-142 146 68 74 c37 41 71 74
75 73 3 -2 70 -72 149 -156z m557 -354 c104 -112 284 -302 400 -423 138 -145
205 -221 195 -223 -23 -6 -211 15 -507 54 -142 19 -273 34 -290 34 -27 0 -47
16 -132 103 -162 165 -264 276 -264 286 0 11 388 371 400 371 4 0 93 -91 198
-202z m717 -336 c418 -261 520 -360 710 -692 93 -163 84 -151 285 -378 89
-101 159 -187 154 -191 -5 -5 -128 -102 -274 -216 -146 -114 -277 -219 -292
-233 -34 -31 -33 -31 -134 95 -42 51 -85 100 -97 107 -12 8 -69 22 -127 31
-171 28 -434 83 -518 110 -130 41 -226 115 -276 213 -9 17 -13 32 -9 33 5 0
28 1 53 2 37 2 47 7 59 29 12 20 13 34 5 55 -8 23 -24 34 -85 58 -173 68 -253
154 -205 220 13 18 16 18 102 -8 103 -31 121 -33 152 -11 28 19 29 67 3 93
-10 10 -43 24 -72 31 -172 41 -399 140 -448 196 -29 33 -31 38 -18 57 8 12 33
28 56 36 37 12 65 10 249 -14 482 -62 805 -87 847 -65 28 15 50 62 38 84 -4 8
-46 50 -92 92 -94 88 -206 230 -216 275 -8 37 10 62 39 53 12 -3 62 -31 111
-62z"/>
<path d="M5830 15470 c-20 -20 -20 -33 -20 -695 0 -662 0 -675 20 -695 20 -20
33 -20 663 -20 611 0 645 1 660 18 16 17 17 79 17 689 0 663 0 671 -21 697
l-20 26 -640 0 c-626 0 -639 0 -659 -20z m1210 -695 l0 -585 -550 0 -550 0 0
585 0 585 550 0 550 0 0 -585z"/>
<path d="M6355 15214 c-77 -28 -132 -103 -149 -201 -5 -29 -3 -33 18 -33 13 0
51 -3 85 -6 l61 -7 0 32 c0 23 9 42 29 62 25 25 37 29 84 29 44 0 61 -5 85
-25 65 -55 48 -122 -57 -221 -77 -72 -91 -101 -91 -191 l0 -53 73 0 72 0 2 53
c3 48 6 55 50 96 27 24 65 59 85 78 51 47 72 107 65 183 -9 105 -67 177 -164
206 -59 18 -197 17 -248 -2z"/>
<path d="M6419 14498 c-1 -2 -3 -40 -5 -85 l-4 -83 86 0 c85 0 86 0 80 23 -3
12 -6 50 -6 85 l0 62 -75 0 c-41 0 -75 -1 -76 -2z"/>
<path d="M7549 15238 c-44 -16 -44 -94 0 -118 14 -7 320 -9 1016 -8 973 3 997
3 1011 22 20 29 17 70 -7 92 -20 18 -52 19 -1011 19 -544 0 -998 -3 -1009 -7z"/>
<path d="M7540 14830 c-25 -25 -26 -72 -1 -95 19 -16 80 -17 1021 -19 l1002
-1 19 24 c27 33 24 66 -7 90 -27 21 -30 21 -1020 21 -981 0 -994 0 -1014 -20z"/>
<path d="M7546 14429 c-26 -20 -35 -61 -18 -85 21 -32 52 -34 562 -34 l511 0
24 25 c14 13 25 34 25 45 0 12 -11 32 -25 45 l-24 25 -514 0 c-505 0 -515 0
-541 -21z"/>
<path d="M6456 13733 c-437 -2 -623 -6 -633 -14 -7 -6 -13 -29 -13 -50 0 -72
-33 -69 680 -69 705 0 680 -2 680 63 0 18 -4 37 -8 44 -9 14 -58 34 -75 31 -7
-2 -291 -4 -631 -5z"/>
<path d="M5827 13312 c-15 -17 -17 -78 -17 -669 l0 -650 23 -21 23 -22 636 0
637 0 20 26 c21 26 21 34 21 664 0 630 0 638 -21 664 l-20 26 -643 0 c-610 0
-644 -1 -659 -18z m1213 -629 l0 -517 -71 69 c-39 39 -134 137 -211 218 l-141
148 53 47 c67 58 89 107 90 193 0 154 -95 239 -269 239 -98 0 -170 -21 -215
-64 l-35 -33 -101 104 c-55 57 -100 106 -100 108 0 3 225 5 500 5 l500 0 0
-517z m-856 170 l236 -247 0 -69 0 -68 64 2 65 2 161 -169 c89 -93 173 -179
186 -191 13 -12 24 -25 24 -28 0 -3 -220 -5 -490 -5 l-490 0 0 510 c0 281 2
510 4 510 3 0 111 -111 240 -247z m365 73 c72 -38 64 -151 -14 -202 l-26 -17
-65 64 c-73 72 -82 90 -60 121 33 47 109 63 165 34z"/>
<path d="M6420 12290 l0 -80 75 0 75 0 0 80 0 80 -75 0 -75 0 0 -80z"/>
<path d="M5826 11624 c-22 -21 -20 -77 2 -97 17 -15 77 -17 660 -17 629 0 642
0 662 20 11 11 20 31 20 45 0 14 -9 34 -20 45 -20 20 -33 20 -664 20 -573 0
-646 -2 -660 -16z"/>
<path d="M5826 11218 c-14 -20 -16 -101 -16 -675 0 -640 0 -653 20 -673 20
-20 33 -20 660 -20 627 0 640 0 660 20 20 20 20 33 20 673 0 574 -2 655 -16
675 l-15 22 -649 0 -649 0 -15 -22z m1002 -215 l-107 -107 -28 26 c-53 51
-108 68 -218 68 -108 0 -152 -13 -211 -63 l-31 -26 -96 97 c-53 54 -97 101
-97 105 0 4 201 7 447 7 l448 0 -107 -107z m212 -455 l-1 -473 -214 219 -214
220 58 61 c58 61 91 117 91 158 0 14 47 67 136 154 75 73 138 133 140 133 2 0
4 -213 4 -472z m-674 25 l26 -33 -223 -230 c-122 -126 -224 -230 -226 -230 -2
0 -3 210 -3 468 l1 467 200 -205 c110 -113 211 -220 225 -237z m154 271 c24
-10 47 -28 55 -44 14 -26 12 -30 -33 -88 -26 -33 -50 -61 -54 -61 -12 -1 -86
68 -109 101 -20 27 -20 30 -4 54 16 24 65 53 92 54 7 0 31 -7 53 -16z m410
-856 c0 -5 -201 -8 -446 -8 l-446 0 80 88 c44 48 130 135 190 195 l111 107 55
0 c46 0 56 3 57 18 0 16 398 -383 399 -400z"/>
<path d="M6410 10200 l0 -80 80 0 80 0 0 80 0 80 -80 0 -80 0 0 -80z"/>
<path d="M5827 9482 c-22 -25 -21 -75 1 -95 17 -16 162 -17 1874 -17 1784 0
1856 1 1871 18 22 25 21 75 -1 95 -17 16 -162 17 -1874 17 -1784 0 -1856 -1
-1871 -18z"/>
<path d="M5836 9085 c-31 -31 -27 -84 8 -107 6 -4 561 -8 1233 -8 l1222 0 20
26 c12 15 21 32 21 39 0 7 -9 24 -21 39 l-20 26 -1224 0 c-1076 0 -1225 -2
-1239 -15z"/>
<path d="M12025 13588 c-35 -27 -64 -92 -65 -141 0 -84 56 -147 130 -147 106
0 163 125 109 237 -35 72 -117 96 -174 51z"/>
<path d="M12977 13560 c-60 -53 -73 -164 -25 -225 107 -136 280 6 212 175 -33
83 -123 107 -187 50z"/>
<path d="M12355 12584 c-11 -2 -46 -9 -78 -16 -76 -14 -107 -39 -107 -84 0
-35 28 -74 54 -74 7 0 35 10 62 22 42 20 65 23 164 22 97 0 128 -4 195 -27 45
-15 103 -42 130 -62 80 -57 135 -44 135 30 0 17 -11 38 -31 56 -42 39 -159 94
-239 114 -66 15 -249 28 -285 19z"/>
<path d="M8995 13534 c-310 -46 -539 -144 -768 -328 -266 -213 -441 -506 -519
-869 -31 -147 -31 -437 0 -584 72 -335 245 -630 493 -839 246 -208 537 -330
845 -353 429 -33 836 111 1141 402 160 153 273 325 363 551 126 318 128 720 5
1052 -131 354 -408 658 -749 824 -218 106 -360 140 -611 145 -93 2 -183 1
-200 -1z m310 -135 c307 -37 588 -172 800 -384 119 -118 182 -204 254 -345
116 -227 146 -357 146 -630 0 -268 -24 -378 -130 -595 -182 -376 -517 -637
-935 -730 -113 -25 -372 -31 -487 -11 -326 56 -607 216 -810 460 -237 286
-346 596 -329 936 11 225 80 461 186 635 171 281 424 492 710 593 203 71 400
95 595 71z"/>
<path d="M8985 12989 c-131 -19 -238 -70 -307 -147 -67 -75 -104 -172 -122
-319 l-7 -53 161 0 160 0 0 28 c0 49 29 128 57 157 61 60 148 83 254 66 78
-13 134 -50 169 -111 21 -38 25 -58 25 -130 0 -121 -26 -164 -177 -295 -131
-113 -155 -140 -190 -210 -35 -68 -48 -139 -48 -250 l0 -95 145 0 145 0 0 73
c0 115 21 169 93 241 34 34 97 90 140 124 169 136 244 310 217 502 -34 238
-162 375 -388 416 -85 15 -235 16 -327 3z"/>
<path d="M8950 11235 l0 -165 155 0 155 0 0 165 0 165 -155 0 -155 0 0 -165z"/>
<path d="M14810 15480 c-18 -18 -20 -35 -22 -197 -2 -234 0 -254 25 -280 20
-22 26 -23 232 -23 166 0 215 3 231 14 17 13 19 31 24 218 5 216 0 262 -30
278 -11 6 -106 10 -229 10 -198 0 -212 -1 -231 -20z m370 -235 l0 -135 -135 0
-135 0 0 128 c0 71 3 132 7 135 3 4 64 7 135 7 l128 0 0 -135z"/>
<path d="M10839 9036 l-24 -12 -3 -1294 -2 -1295 21 -17 c29 -25 55 -22 84 7
l25 24 0 1265 c0 924 -3 1272 -11 1290 -15 33 -58 48 -90 32z"/>
<path d="M0 1110 l0 -1110 1710 0 1710 0 0 1110 0 1110 -1710 0 -1710 0 0
-1110z m1130 368 c29 -9 127 -54 138 -63 2 -2 -45 -85 -65 -114 -2 -2 -25 8
-52 22 -89 49 -197 56 -240 15 -25 -22 -28 -70 -6 -92 8 -8 72 -33 143 -55
181 -57 232 -106 232 -221 0 -163 -173 -257 -375 -205 -60 16 -147 58 -166 81
-14 17 -5 41 29 82 l27 33 70 -36 c81 -41 152 -53 210 -33 73 24 87 99 23 130
-18 8 -78 29 -134 46 -55 17 -118 45 -141 61 -87 63 -98 206 -20 289 64 69
209 95 327 60z m369 -70 c80 -212 167 -428 171 -428 4 0 12 17 19 38 7 20 50
135 94 255 l80 217 74 0 c40 0 73 -3 73 -6 0 -3 -44 -119 -99 -257 -54 -139
-116 -300 -137 -359 l-39 -107 -52 -7 c-29 -3 -58 -4 -65 -1 -12 4 -298 700
-298 725 0 8 23 12 74 12 l74 0 31 -82z m1082 54 c25 -13 61 -36 80 -51 l34
-29 -44 -45 -43 -45 -50 31 c-87 54 -218 49 -289 -10 -124 -105 -92 -347 56
-414 50 -23 136 -24 198 -3 l47 16 0 64 0 63 -87 3 -88 3 0 58 0 59 155 1 155
2 3 -158 3 -157 -48 -30 c-121 -78 -301 -93 -418 -36 -70 35 -126 89 -158 153
-109 215 -11 467 208 540 64 21 229 12 286 -15z"/>
<path d="M15352 1590 c-62 -15 -102 -73 -102 -150 0 -38 -2 -40 -30 -40 -29 0
-30 -2 -30 -45 0 -43 1 -45 30 -45 l30 0 0 -185 0 -185 25 -1 c14 -1 39 -2 55
-3 l30 -1 0 188 0 187 50 0 50 0 0 45 0 45 -50 0 -50 0 0 34 c0 44 19 58 72
55 38 -3 43 -1 49 21 16 57 11 69 -28 75 -21 4 -45 8 -53 10 -8 1 -30 -1 -48
-5z"/>
<path d="M4460 1525 l0 -55 55 0 55 0 0 55 0 55 -55 0 -55 0 0 -55z"/>
<path d="M5484 1567 c-3 -8 -4 -34 -2 -58 3 -49 15 -56 75 -44 l34 6 -3 52 -3
52 -48 3 c-34 2 -49 -1 -53 -11z"/>
<path d="M6830 1463 l0 -116 -22 21 c-46 42 -128 55 -191 28 -49 -20 -103 -89
-117 -148 -40 -165 53 -320 191 -320 50 0 110 28 129 60 7 14 9 10 10 -15 l0
-33 57 0 56 0 -6 137 c-4 75 -7 219 -7 320 l0 183 -50 0 -50 0 0 -117z m-44
-174 c33 -31 47 -83 41 -148 -8 -72 -45 -111 -107 -111 -97 0 -148 125 -94
232 30 59 112 72 160 27z"/>
<path d="M18027 1573 c-4 -3 -7 -28 -7 -55 l0 -48 55 0 55 0 0 55 0 55 -48 0
c-27 0 -52 -3 -55 -7z"/>
<path d="M3960 1250 l0 -310 216 0 215 0 -3 53 -3 52 -136 -4 c-75 -2 -145 0
-157 3 -22 7 -22 10 -22 262 l0 254 -55 0 -55 0 0 -310z"/>
<path d="M11455 1547 c-3 -7 -4 -146 -3 -310 l3 -298 208 0 c114 0 215 1 225
1 14 0 16 8 14 50 l-4 50 -166 2 -167 3 -3 78 -3 77 141 0 140 0 0 50 0 50
-135 0 -135 0 0 75 0 75 165 0 165 0 0 55 0 55 -220 0 c-168 0 -222 -3 -225
-13z"/>
<path d="M14473 1553 c-10 -4 -13 -76 -13 -314 l0 -309 55 0 55 0 0 315 0 315
-42 -1 c-24 0 -49 -3 -55 -6z"/>
<path d="M5730 1475 l0 -75 -30 0 c-29 0 -30 -2 -30 -45 0 -43 1 -45 30 -45
l30 0 0 -140 c0 -159 11 -199 59 -224 34 -18 97 -21 135 -6 23 8 26 15 26 54
l0 45 -49 -6 c-47 -5 -50 -4 -56 18 -3 13 -4 76 -3 139 l3 115 53 3 52 3 0 45
0 44 -55 0 -55 0 0 75 0 75 -55 0 -55 0 0 -75z"/>
<path d="M7393 1348 c-46 -112 -100 -249 -122 -305 l-39 -103 57 0 57 0 24 65
25 66 134 -3 135 -3 25 -62 24 -63 60 0 c43 0 58 3 54 13 -3 6 -35 84 -71 172
-35 88 -89 219 -119 290 l-54 130 -54 3 -54 3 -82 -203z m181 -54 l44 -109
-85 -3 c-47 -2 -87 -1 -90 1 -2 3 15 55 38 116 23 61 43 110 46 108 2 -2 23
-53 47 -113z"/>
<path d="M10370 1471 c0 -69 0 -70 -27 -73 -25 -3 -28 -7 -31 -45 -3 -42 -2
-43 27 -43 l31 0 0 -132 c0 -152 10 -199 47 -228 29 -23 106 -27 148 -8 21 9
25 18 25 54 l0 44 -44 -6 c-61 -9 -67 6 -64 153 l3 118 53 3 52 3 0 44 0 44
-52 3 -53 3 -3 68 -3 67 -54 0 -55 0 0 -69z"/>
<path d="M13930 1471 l0 -70 -32 -3 c-31 -3 -33 -6 -36 -45 -3 -40 -2 -42 28
-45 l32 -3 2 -145 c2 -196 22 -230 132 -230 68 0 84 12 84 64 l0 44 -47 -1
c-42 -2 -47 1 -54 23 -9 31 -11 213 -3 234 4 11 19 16 50 16 l44 0 0 44 0 45
-47 3 -48 3 -3 68 -3 67 -49 0 -50 0 0 -69z"/>
<path d="M17720 1470 l0 -70 -30 0 c-29 0 -30 -2 -30 -45 0 -43 1 -45 30 -45
l30 0 0 -132 c0 -152 10 -199 47 -228 30 -23 106 -27 148 -8 23 10 26 17 23
52 l-3 41 -44 -4 c-29 -2 -47 2 -52 11 -5 7 -9 70 -9 141 l0 127 50 0 50 0 0
45 0 45 -50 0 -50 0 0 70 0 70 -55 0 -55 0 0 -70z"/>
<path d="M4462 1173 l3 -238 53 -3 52 -3 0 240 0 241 -55 0 -55 0 2 -237z"/>
<path d="M4855 1398 c-11 -6 -30 -20 -42 -31 l-23 -20 0 26 c0 26 -2 27 -50
27 l-50 0 0 -230 0 -230 23 -1 c12 -1 37 -2 54 -3 l33 -1 0 155 c0 136 2 159
20 187 33 55 112 55 141 1 7 -13 14 -90 17 -186 l5 -163 50 3 50 3 1 160 c1
171 7 193 53 214 36 17 59 13 90 -13 l27 -24 4 -171 4 -171 49 0 c32 0 49 4
50 13 0 6 0 91 -1 187 -1 145 -4 181 -19 209 -22 44 -73 71 -134 71 -54 0 -79
-10 -119 -48 -24 -22 -28 -23 -34 -9 -3 9 -21 26 -39 37 -36 22 -126 27 -160
8z"/>
<path d="M6123 1389 c-87 -43 -123 -110 -123 -229 1 -106 48 -179 140 -218 57
-23 157 -13 215 23 27 17 50 35 52 41 2 7 -12 21 -31 33 l-35 22 -38 -21 c-21
-11 -57 -20 -81 -20 -37 0 -50 6 -78 34 -19 19 -34 43 -34 55 0 20 6 21 158
23 l157 3 3 40 c7 86 -42 176 -119 215 -52 27 -131 26 -186 -1z m132 -75 c30
-14 65 -64 65 -93 0 -7 -35 -11 -105 -11 -88 0 -105 2 -105 15 0 31 32 77 63
90 41 18 43 18 82 -1z"/>
<path d="M7997 1396 c-139 -52 -189 -253 -94 -379 44 -57 105 -87 179 -87 67
0 108 15 156 55 l33 28 -22 23 c-32 35 -55 38 -85 15 -19 -15 -41 -21 -76 -21
-43 0 -55 5 -83 33 -100 100 -15 282 115 247 21 -6 43 -17 50 -25 18 -22 33
-19 65 15 24 25 26 32 15 45 -43 52 -179 79 -253 51z"/>
<path d="M8455 1399 c-45 -13 -101 -64 -125 -115 -26 -54 -31 -152 -10 -205
62 -154 242 -200 368 -94 l33 28 -22 23 c-31 33 -57 39 -80 18 -24 -21 -108
-30 -138 -14 -77 41 -83 203 -9 254 32 23 109 21 141 -4 32 -26 35 -25 69 7
36 34 35 44 -4 68 -71 43 -151 56 -223 34z"/>
<path d="M8895 1396 c-181 -79 -191 -351 -16 -443 83 -43 210 -25 269 40 l23
25 -34 26 -35 27 -38 -27 c-71 -48 -166 -20 -193 57 l-10 29 165 0 164 0 0 48
c0 139 -91 233 -225 232 -22 -1 -53 -7 -70 -14z m154 -111 c17 -20 31 -45 31
-55 0 -19 -7 -20 -105 -20 -116 0 -120 3 -90 60 20 38 41 49 91 50 36 0 47 -5
73 -35z"/>
<path d="M9345 1396 c-48 -21 -77 -60 -82 -110 -8 -65 20 -106 96 -140 32 -14
64 -26 70 -26 31 0 71 -31 71 -55 0 -51 -88 -59 -172 -15 l-42 22 -23 -29
c-13 -15 -22 -34 -21 -42 5 -24 98 -65 159 -69 85 -6 125 4 163 43 38 38 51
84 36 134 -15 53 -46 78 -132 107 -103 34 -125 55 -92 88 21 22 80 20 133 -4
24 -11 44 -20 46 -20 1 0 10 18 20 41 22 47 19 50 -59 74 -61 18 -131 19 -171
1z"/>
<path d="M9765 1396 c-79 -35 -109 -128 -63 -196 19 -29 38 -40 109 -65 118
-41 140 -63 103 -99 -23 -24 -91 -20 -152 9 -30 14 -55 25 -57 25 -2 0 -13
-16 -26 -36 -24 -40 -26 -38 45 -75 44 -24 135 -35 190 -25 81 15 134 113 103
187 -21 50 -45 67 -138 97 -70 23 -85 31 -87 50 -2 13 2 30 8 38 18 20 84 17
130 -6 22 -11 41 -20 44 -20 2 0 14 16 27 36 22 36 22 37 3 51 -53 38 -182 54
-239 29z"/>
<path d="M10785 1396 c-105 -46 -160 -160 -135 -280 15 -75 56 -128 124 -161
48 -23 65 -27 121 -23 51 3 73 10 107 34 153 107 137 351 -27 425 -47 22 -146
24 -190 5z m167 -113 c59 -57 61 -162 3 -220 -68 -68 -174 -32 -196 65 -16 74
18 158 76 183 33 14 86 2 117 -28z"/>
<path d="M12633 1390 c-18 -11 -33 -24 -33 -30 0 -5 -4 -10 -10 -10 -5 0 -10
11 -10 25 0 23 -3 25 -50 25 l-50 0 0 -312 0 -313 53 0 52 1 5 109 c4 95 7
106 19 91 43 -52 138 -61 207 -21 63 37 96 98 102 190 10 161 -69 265 -200
265 -35 0 -64 -7 -85 -20z m124 -94 c52 -44 66 -131 34 -203 -23 -49 -45 -63
-101 -63 -56 0 -99 41 -101 97 -4 106 10 156 50 178 40 22 86 18 118 -9z"/>
<path d="M13125 1391 c-49 -23 -99 -74 -119 -123 -37 -88 -7 -222 64 -281 53
-45 97 -59 172 -55 79 4 133 36 182 106 39 55 48 157 21 227 -20 53 -92 120
-144 135 -56 15 -132 12 -176 -9z m145 -86 c90 -46 106 -185 29 -250 -46 -38
-108 -35 -156 8 -31 29 -37 41 -41 89 -5 69 21 127 70 151 41 21 61 21 98 2z"/>
<path d="M13733 1390 c-18 -11 -38 -29 -45 -40 -19 -30 -31 -24 -26 15 l4 35
-58 0 -58 0 0 -230 0 -230 54 0 53 0 8 133 c9 173 26 205 118 221 l37 7 0 54
c0 53 -1 55 -27 55 -16 0 -42 -9 -60 -20z"/>
<path d="M14875 1398 c-11 -6 -30 -20 -42 -31 l-23 -20 0 26 c0 26 -2 27 -55
27 l-55 0 0 -235 0 -235 55 0 55 0 0 145 c0 165 10 204 59 229 43 22 78 20
106 -8 28 -28 38 -103 33 -253 l-3 -101 54 -4 c35 -2 55 1 58 9 3 6 3 90 1
185 -3 195 -12 224 -78 259 -39 21 -133 25 -165 7z"/>
<path d="M15640 1390 c-96 -45 -134 -108 -135 -221 0 -67 3 -81 30 -124 45
-73 101 -108 179 -113 81 -5 128 10 182 60 58 53 77 107 73 201 -5 90 -35 142
-105 183 -64 37 -161 43 -224 14z m168 -96 c49 -32 67 -134 36 -199 -51 -109
-207 -81 -230 41 -7 41 10 110 34 138 40 45 108 54 160 20z"/>
<path d="M16243 1390 c-17 -10 -37 -28 -43 -39 -17 -32 -29 -25 -23 14 l6 35
-57 0 -56 0 0 -235 0 -235 55 0 55 0 0 125 c0 173 24 222 113 234 47 7 55 23
42 87 -5 29 -10 34 -33 34 -15 0 -41 -9 -59 -20z"/>
<path d="M16468 1402 l-48 -3 0 -235 0 -234 54 0 55 0 3 170 c3 160 4 171 26
192 28 28 93 31 119 5 15 -15 19 -43 23 -190 l5 -172 53 0 52 0 0 135 c0 153
10 200 47 230 34 27 66 25 100 -4 l28 -24 2 -169 3 -168 50 -3 50 -3 3 118 c4
193 -1 263 -20 296 -48 80 -181 91 -255 20 l-28 -26 -20 26 c-43 55 -151 61
-214 13 l-35 -26 -3 27 c-3 27 -5 28 -50 25z"/>
<path d="M17274 1386 c-28 -13 -55 -29 -58 -35 -4 -6 3 -26 15 -44 12 -17 23
-33 24 -34 0 -1 23 9 50 23 86 44 175 12 175 -62 0 -32 -1 -33 -26 -24 -43 17
-145 11 -191 -9 -50 -23 -74 -57 -80 -114 -5 -53 19 -103 66 -134 58 -39 170
-28 210 21 19 23 31 20 31 -9 0 -23 4 -25 45 -25 25 0 48 1 52 3 3 1 5 76 4
167 -2 147 -4 170 -24 210 -30 61 -87 90 -177 90 -47 0 -79 -7 -116 -24z m190
-246 c68 -26 -6 -130 -92 -130 -87 0 -111 104 -32 133 25 9 97 8 124 -3z"/>
<path d="M18360 1390 c-56 -26 -87 -54 -111 -102 -46 -91 -33 -198 34 -274 51
-58 105 -84 177 -84 69 0 124 25 171 77 48 53 62 99 57 188 -3 63 -8 80 -34
117 -41 59 -100 90 -183 95 -52 3 -75 -1 -111 -17z m151 -85 c44 -23 69 -71
69 -133 0 -95 -41 -142 -123 -142 -40 0 -54 5 -77 28 -68 69 -56 194 23 242
39 24 68 25 108 5z"/>
<path d="M18955 1394 c-16 -9 -35 -23 -41 -30 -10 -12 -13 -10 -18 11 -6 23
-11 25 -56 25 l-50 0 2 -232 3 -233 45 0 45 0 2 45 c0 25 5 98 10 162 8 101
13 121 32 142 27 29 82 41 112 26 16 -9 34 -8 80 6 32 10 59 21 59 24 0 9 -41
46 -67 59 -31 16 -123 13 -158 -5z"/>
<path d="M5480 1165 l0 -235 55 0 55 0 0 235 0 235 -55 0 -55 0 0 -235z"/>
<path d="M11991 1363 c13 -21 45 -71 71 -112 26 -40 45 -78 41 -85 -6 -10
-111 -163 -142 -207 -13 -18 -11 -19 52 -19 l65 0 41 70 c23 38 46 72 51 75 5
3 31 -27 57 -67 26 -40 53 -76 58 -80 9 -7 104 0 114 8 1 1 -31 52 -73 112
-42 61 -76 116 -76 122 0 7 32 57 70 111 39 55 70 102 70 104 0 3 -26 5 -59 5
l-58 0 -48 -72 -47 -71 -45 71 -45 72 -60 0 -60 0 23 -37z"/>
<path d="M18030 1170 l0 -230 50 0 50 0 0 230 0 230 -50 0 -50 0 0 -230z"/>
<path d="M19182 1048 c-8 -8 -9 -15 -1 -25 17 -20 29 -15 29 12 0 27 -9 32
-28 13z"/>
<path d="M19181 957 c-9 -12 -8 -16 3 -20 19 -7 32 11 19 24 -6 6 -14 5 -22
-4z"/>
</g>
</svg>
