<?xml version="1.0" standalone="no"?>
<!DOCTYPE svg PUBLIC "-//W3C//DTD SVG 20010904//EN"
 "http://www.w3.org/TR/2001/REC-SVG-20010904/DTD/svg10.dtd">
<svg version="1.0" xmlns="http://www.w3.org/2000/svg"
 width="1389.000000pt" height="1277.000000pt" viewBox="0 0 1389.000000 1277.000000"
 preserveAspectRatio="xMidYMid meet">

<g transform="translate(0.000000,1277.000000) scale(0.100000,-0.100000)"
fill="#000000" stroke="none">
<path d="M1820 7020 l0 -4120 265 0 265 0 0 58 c0 33 3 127 7 210 l6 152 -66
0 -67 0 0 3700 0 3700 4103 2 4102 3 3 208 2 207 -4310 0 -4310 0 0 -4120z"/>
<path d="M2571 6170 l2 -4280 234 0 234 0 -3 4048 -3 4047 3720 1 c2046 0
3770 1 3830 2 l110 2 3 230 3 230 -4066 0 -4066 0 2 -4280z"/>
<path d="M6223 9753 l-2963 -3 0 -4330 0 -4330 2710 0 c1491 0 2710 2 2710 5
0 3 -30 20 -67 39 -193 98 -394 273 -562 488 l-53 68 -2049 0 -2049 0 2 3733
3 3732 3068 3 3067 2 0 -2334 0 -2334 53 -18 c148 -49 338 -148 492 -259 44
-32 85 -60 93 -62 10 -4 12 486 12 2718 -1 1498 -3 2760 -7 2805 l-5 80 -747
0 c-410 0 -2079 -2 -3708 -3z"/>
<path d="M4560 5445 l0 -3125 1581 0 1581 0 -6 25 c-36 143 -46 456 -21 635
118 826 769 1471 1590 1573 l100 13 3 647 2 647 -232 0 -231 0 6 710 6 710
-754 0 -755 0 0 -147 c0 -82 -3 -185 -7 -230 l-6 -83 -98 0 -99 0 0 230 0 230
-655 0 -655 0 0 -240 0 -240 -425 0 -425 0 0 -240 0 -240 -105 0 -105 0 0 463
c0 254 -3 515 -7 580 l-6 117 157 2 c86 1 172 2 191 3 l35 0 4 -102 4 -103
-84 0 -84 0 0 -130 0 -130 320 0 320 0 0 130 0 130 -125 0 -125 0 0 105 0 105
1850 0 1850 0 0 -705 0 -705 120 0 120 0 0 1245 0 1245 -2415 0 -2415 0 0
-3125z m4320 2550 l0 -225 -1905 0 -1905 0 0 225 0 225 1905 0 1905 0 0 -225z
m-2317 -965 l397 0 0 -105 0 -105 -425 0 -425 0 0 103 c0 57 3 107 7 111 4 4
17 5 28 2 11 -3 199 -6 418 -6z m1287 -230 l0 -240 215 0 215 0 0 -105 0 -105
-425 0 -425 0 0 -375 0 -375 205 0 205 0 0 -495 0 -495 -105 0 -105 0 0 155 0
155 -209 0 c-116 0 -211 3 -213 8 -2 4 -2 51 0 105 l4 97 209 0 209 0 0 130 0
130 -397 2 c-219 1 -417 0 -440 -1 l-43 -3 0 106 0 106 235 0 235 0 0 480 0
480 210 0 210 0 0 240 0 240 105 0 105 0 0 -240z m840 -230 l0 -440 -105 0
-105 0 0 335 0 335 -215 0 -215 0 0 105 0 105 320 0 320 0 0 -440z m-3180
-310 l0 -400 -375 0 -376 0 3 108 3 107 268 -3 267 -3 0 295 0 296 105 0 105
0 0 -400z m1491 297 c-1 -4 -1 -158 -1 -342 l0 -335 -100 0 -100 0 0 235 0
235 -555 0 -555 0 0 105 0 105 648 2 c756 3 664 4 663 -5z m849 -409 l0 -81
220 7 220 6 0 -395 0 -395 -102 0 -103 0 0 285 0 285 -222 0 -223 0 0 185 0
185 105 0 105 0 0 -82z m-1280 -191 c0 -74 3 -249 7 -390 l6 -257 -106 0 -107
0 0 288 0 288 -97 0 c-54 -1 -205 0 -335 2 l-238 2 0 100 0 100 435 0 435 0 0
-133z m2140 -194 c0 -76 3 -249 7 -385 l6 -248 204 0 203 0 0 -89 c0 -49 3
-96 6 -105 6 -14 -35 -16 -410 -16 l-416 0 0 -360 0 -360 -550 0 -550 0 0 85
0 85 -220 0 -220 0 0 275 0 275 -105 0 -105 0 0 -440 0 -440 505 0 505 0 0
-109 0 -109 -730 0 -730 1 0 103 0 104 120 0 120 0 0 445 0 445 -318 0 -318 0
2 103 2 102 631 3 631 2 0 -270 0 -270 220 0 220 0 0 -90 0 -90 340 0 340 0 0
360 0 360 200 0 200 0 0 380 0 379 98 4 c53 1 100 4 105 5 4 1 7 -60 7 -135z
m440 -213 l0 -140 -105 0 -105 0 0 140 0 140 105 0 105 0 0 -140z m-2982 -32
l-3 -103 -344 0 -344 0 -1 103 -1 102 348 0 348 0 -3 -102z m-1138 -508 l0
-600 240 0 240 0 0 -105 0 -105 -240 0 -240 0 2 -724 3 -725 315 -5 c173 -3
371 -5 440 -5 l125 -1 -3 -105 -3 -105 -545 0 -544 0 0 1540 0 1540 105 0 105
0 0 -600z m478 -32 l2 -298 365 0 365 0 0 -105 0 -105 -156 0 -155 0 3 -425 3
-425 213 0 212 0 0 -107 0 -108 -460 3 -460 2 0 -198 0 -199 -105 -1 -105 -1
0 450 0 449 105 0 105 0 0 -145 0 -145 145 0 145 0 0 425 0 425 -215 0 -215 0
0 405 0 406 103 -3 102 -3 3 -297z m1962 -1705 l0 -338 -152 -1 c-84 0 -328
-1 -543 -2 l-390 -2 -1 -198 -1 -197 -101 -3 -102 -3 0 206 0 205 -240 0 -240
0 0 105 0 105 785 0 785 0 0 125 0 125 -360 0 -360 0 0 105 0 105 460 0 460 0
0 -337z m-570 -585 c0 -29 3 -77 6 -105 l7 -53 -124 0 -124 0 0 105 0 105 118
0 117 0 0 -52z"/>
<path d="M9335 4094 c-466 -71 -848 -340 -1048 -739 -157 -314 -192 -626 -107
-960 126 -500 535 -889 1052 -1002 105 -23 416 -25 523 -4 656 129 1120 692
1117 1356 -1 439 -197 826 -549 1089 -151 112 -304 184 -498 233 -85 21 -128
25 -280 28 -99 2 -193 1 -210 -1z m406 -225 c273 -54 524 -212 690 -431 77
-104 162 -276 196 -403 25 -92 27 -115 28 -295 0 -216 -11 -276 -79 -446 -101
-254 -345 -506 -591 -612 -187 -80 -333 -108 -529 -99 -551 24 -1001 423
-1091 967 -25 144 -17 337 19 475 31 120 123 311 196 407 118 155 313 306 486
375 224 90 437 110 675 62z"/>
</g>
</svg>
