<?xml version="1.0" standalone="no"?>
<!DOCTYPE svg PUBLIC "-//W3C//DTD SVG 20010904//EN"
 "http://www.w3.org/TR/2001/REC-SVG-20010904/DTD/svg10.dtd">
<svg version="1.0" xmlns="http://www.w3.org/2000/svg"
 width="930.000000pt" height="709.000000pt" viewBox="0 0 930.000000 709.000000"
 preserveAspectRatio="xMidYMid meet">

<g transform="translate(0.000000,709.000000) scale(0.100000,-0.100000)"
fill="#000000" stroke="none">
<path d="M2090 5080 l0 -960 780 0 780 0 0 -357 0 -358 358 358 357 357 543 0
542 0 0 240 0 240 -360 0 -360 0 0 720 0 720 -1320 0 -1320 0 0 -960z m600
480 l0 -120 -120 0 -120 0 0 120 0 120 120 0 120 0 0 -120z m1680 0 l0 -120
-720 0 -720 0 0 120 0 120 720 0 720 0 0 -120z m0 -480 l0 -120 -960 0 -960 0
0 120 0 120 960 0 960 0 0 -120z m-600 -480 l0 -120 -660 0 -660 0 0 120 0
120 660 0 660 0 0 -120z"/>
<path d="M5990 2415 c-25 -7 -72 -21 -105 -30 -33 -10 -80 -23 -105 -30 -25
-7 -72 -21 -105 -30 -33 -10 -80 -23 -105 -30 -25 -7 -70 -20 -100 -29 -30 -8
-86 -25 -125 -36 -38 -11 -85 -23 -102 -27 l-33 -6 0 -538 0 -539 -720 0 -720
0 0 358 0 359 -417 119 -418 119 -3 91 -3 91 -62 -26 c-55 -23 -76 -26 -177
-26 -101 0 -122 3 -178 26 l-62 27 0 -89 c0 -103 10 -92 -125 -129 -44 -12
-93 -26 -110 -31 -33 -10 -199 -58 -230 -66 -11 -3 -58 -17 -105 -30 -104 -30
-172 -49 -227 -64 l-43 -11 0 -659 0 -659 180 0 180 0 0 -180 0 -180 720 0
720 0 0 180 0 180 180 0 180 0 0 -180 0 -180 2400 0 2400 0 0 480 0 480 -600
0 -600 0 0 540 c0 516 -1 540 -18 540 -10 0 -41 7 -68 15 -82 26 -134 41 -254
75 -63 18 -158 45 -210 60 -52 15 -124 35 -160 45 -36 9 -75 21 -88 26 -13 5
-27 9 -32 9 -4 0 -60 -52 -123 -115 -63 -63 -120 -115 -127 -115 -7 0 -64 52
-127 115 -63 63 -118 114 -121 114 -4 -1 -27 -7 -52 -14z m1740 -1775 l0 -120
-1800 0 -1800 0 0 120 0 120 1800 0 1800 0 0 -120z m480 0 l0 -120 -120 0
-120 0 0 120 0 120 120 0 120 0 0 -120z"/>
</g>
</svg>
